<?xml version="1.0" encoding="UTF-8" standalone="no"?>
<svg
   xmlns:dc="http://purl.org/dc/elements/1.1/"
   xmlns:cc="http://creativecommons.org/ns#"
   xmlns:rdf="http://www.w3.org/1999/02/22-rdf-syntax-ns#"
   xmlns:svg="http://www.w3.org/2000/svg"
   xmlns="http://www.w3.org/2000/svg"
   xmlns:sodipodi="http://sodipodi.sourceforge.net/DTD/sodipodi-0.dtd"
   xmlns:inkscape="http://www.inkscape.org/namespaces/inkscape"
   inkscape:export-ydpi="96"
   inkscape:export-xdpi="96"
   inkscape:export-filename="hitcircleoverlay@2x.png"
   sodipodi:docname="hitcircleoverlay.svg"
   inkscape:version="1.0 (4035a4fb49, 2020-05-01)"
   width="256"
   height="256"
   viewBox="0 0 256 256"
   version="1.1"
   id="SVGRoot">
  <defs
     id="defs833" />
  <sodipodi:namedview
     inkscape:snap-object-midpoints="true"
     inkscape:window-maximized="0"
     inkscape:window-y="54"
     inkscape:window-x="202"
     inkscape:window-height="929"
     inkscape:window-width="1274"
     showgrid="true"
     inkscape:document-rotation="0"
     inkscape:current-layer="layer1"
     inkscape:document-units="px"
     inkscape:cy="128"
     inkscape:cx="128"
     inkscape:zoom="2.6953125"
     inkscape:pageshadow="2"
     inkscape:pageopacity="0"
     borderopacity="1.0"
     bordercolor="#666666"
     pagecolor="#000000"
     id="base">
    <inkscape:grid
       originy="128"
       originx="128"
       type="xygrid"
       id="grid1403" />
  </sodipodi:namedview>
  <metadata
     id="metadata836">
    <rdf:RDF>
      <cc:Work
         rdf:about="">
        <dc:format>image/svg+xml</dc:format>
        <dc:type
           rdf:resource="http://purl.org/dc/dcmitype/StillImage" />
        <dc:title></dc:title>
      </cc:Work>
    </rdf:RDF>
  </metadata>
  <g
     id="layer1"
     inkscape:groupmode="layer"
     inkscape:label="Layer 1">
    <path
       d="M 128 10 A 118 118 0 0 0 10 128 A 118 118 0 0 0 128 246 A 118 118 0 0 0 246 128 A 118 118 0 0 0 128 10 z M 127.88867 20 A 108 108 0 0 1 128 20 A 108 108 0 0 1 236 128 A 108 108 0 0 1 128 236 A 108 108 0 0 1 20 128 A 108 108 0 0 1 127.88867 20 z "
       style="fill:#ffffff;fill-opacity:1;paint-order:stroke fill markers;"
       id="path1410-6" />
  </g>
  <g
     inkscape:label="ring"
     id="layer2"
     inkscape:groupmode="layer" />
</svg>
