<?xml version="1.0" encoding="UTF-8" standalone="no"?>
<svg
   xmlns:dc="http://purl.org/dc/elements/1.1/"
   xmlns:cc="http://creativecommons.org/ns#"
   xmlns:rdf="http://www.w3.org/1999/02/22-rdf-syntax-ns#"
   xmlns:svg="http://www.w3.org/2000/svg"
   xmlns="http://www.w3.org/2000/svg"
   xmlns:sodipodi="http://sodipodi.sourceforge.net/DTD/sodipodi-0.dtd"
   xmlns:inkscape="http://www.inkscape.org/namespaces/inkscape"
   sodipodi:docname="modicon-pf.svg"
   inkscape:version="1.0 (4035a4fb49, 2020-05-01)"
   width="128.0px"
   height="128.0px"
   viewBox="0 0 128.0 128.0"
   version="1.1"
   id="SVGRoot"
   inkscape:export-filename="selection-mod-perfect@2x.png"
   inkscape:export-xdpi="96"
   inkscape:export-ydpi="96">
  <defs
     id="defs833" />
  <sodipodi:namedview
     inkscape:window-maximized="0"
     inkscape:window-y="83"
     inkscape:window-x="192"
     inkscape:window-height="871"
     inkscape:window-width="1274"
     showgrid="true"
     inkscape:document-rotation="0"
     inkscape:current-layer="layer2"
     inkscape:document-units="px"
     inkscape:cy="64"
     inkscape:cx="64.003437"
     inkscape:zoom="5.675"
     inkscape:pageshadow="2"
     inkscape:pageopacity="0"
     borderopacity="1.0"
     bordercolor="#666666"
     pagecolor="#000815"
     id="base">
    <inkscape:grid
       spacingy="2"
       empspacing="8"
       spacingx="2"
       id="grid1410"
       type="xygrid" />
  </sodipodi:namedview>
  <metadata
     id="metadata836">
    <rdf:RDF>
      <cc:Work
         rdf:about="">
        <dc:format>image/svg+xml</dc:format>
        <dc:type
           rdf:resource="http://purl.org/dc/dcmitype/StillImage" />
        <dc:title></dc:title>
      </cc:Work>
    </rdf:RDF>
  </metadata>
  <g
     id="layer1"
     inkscape:groupmode="layer"
     inkscape:label="Background">
    <path
       id="path1412"
       d="M 64,4 4,64 64,124 124,64 Z M 64,12 116,64 64,116 12,64 Z"
       style="fill:#ffffff;stroke:none;stroke-width:1px;stroke-linecap:butt;stroke-linejoin:miter;stroke-opacity:1;fill-opacity:1" />
    <path
       style="fill:#000000;stroke:none;stroke-width:1px;stroke-linecap:butt;stroke-linejoin:miter;stroke-opacity:1;fill-opacity:1"
       d="M 64,12 116,64 64,116 12,64 Z"
       id="path2059" />
  </g>
  <g
     inkscape:groupmode="layer"
     id="layer3"
     inkscape:label="Text">
    <text
       id="text1416"
       y="120"
       x="124"
       style="font-style:normal;font-variant:normal;font-weight:900;font-stretch:normal;font-size:20px;line-height:1.25;font-family:Orbitron;-inkscape-font-specification:'Orbitron Heavy';text-align:end;text-anchor:end;fill:#ffcc22;fill-opacity:1;stroke:none"
       xml:space="preserve"><tspan
         y="120"
         x="124"
         id="tspan1414"
         sodipodi:role="line">PF</tspan></text>
  </g>
  <g
     inkscape:groupmode="layer"
     id="layer2"
     inkscape:label="Content">
    <g
       transform="translate(0.111542,0.183963)"
       style="font-style:normal;font-variant:normal;font-weight:normal;font-stretch:normal;font-size:40px;line-height:1.25;font-family:Orbitron;-inkscape-font-specification:Orbitron;fill:#ffcc22;fill-opacity:1;stroke:none"
       id="text1999"
       aria-label="SS">
      <path
         id="path2001"
         d="m 37.888458,78.696037 q -2,0 -3.4,-1.4 -1.4,-1.4 -1.4,-3.4 v -1.12 h 3.24 v 1.12 q 0,0.64 0.44,1.12 0.48,0.44 1.12,0.44 h 19.2 q 0.64,0 1.08,-0.44 0.48,-0.48 0.48,-1.12 v -6.44 q 0,-0.64 -0.48,-1.08 -0.44,-0.44 -1.08,-0.44 h -19.2 q -2,0 -3.4,-1.4 -1.4,-1.44 -1.4,-3.4 v -6.44 q 0,-2 1.4,-3.4 1.4,-1.4 3.4,-1.4 h 19.2 q 2,0 3.4,1.4 1.4,1.4 1.4,3.4 v 1.12 h -3.24 v -1.12 q 0,-0.64 -0.48,-1.08 -0.44,-0.48 -1.08,-0.48 h -19.2 q -0.64,0 -1.12,0.48 -0.44,0.44 -0.44,1.08 v 6.44 q 0,0.64 0.44,1.08 0.48,0.44 1.12,0.44 h 19.2 q 2,0 3.4,1.44 1.4,1.4 1.4,3.36 v 6.44 q 0,2 -1.4,3.4 -1.4,1.4 -3.4,1.4 z" />
      <path
         id="path2003"
         d="m 70.779083,78.696037 q -2,0 -3.4,-1.4 -1.4,-1.4 -1.4,-3.4 v -1.12 h 3.24 v 1.12 q 0,0.64 0.44,1.12 0.48,0.44 1.12,0.44 h 19.2 q 0.64,0 1.08,-0.44 0.48,-0.48 0.48,-1.12 v -6.44 q 0,-0.64 -0.48,-1.08 -0.44,-0.44 -1.08,-0.44 h -19.2 q -2,0 -3.4,-1.4 -1.4,-1.44 -1.4,-3.4 v -6.44 q 0,-2 1.4,-3.4 1.4,-1.4 3.4,-1.4 h 19.2 q 2,0 3.4,1.4 1.4,1.4 1.4,3.4 v 1.12 h -3.24 v -1.12 q 0,-0.64 -0.48,-1.08 -0.44,-0.48 -1.08,-0.48 h -19.2 q -0.64,0 -1.12,0.48 -0.44,0.44 -0.44,1.08 v 6.44 q 0,0.64 0.44,1.08 0.48,0.44 1.12,0.44 h 19.2 q 2,0 3.4,1.44 1.4,1.4 1.4,3.36 v 6.44 q 0,2 -1.4,3.4 -1.4,1.4 -3.4,1.4 z" />
    </g>
  </g>
</svg>
