<?xml version="1.0" encoding="UTF-8" standalone="no"?>
<svg
   xmlns:dc="http://purl.org/dc/elements/1.1/"
   xmlns:cc="http://creativecommons.org/ns#"
   xmlns:rdf="http://www.w3.org/1999/02/22-rdf-syntax-ns#"
   xmlns:svg="http://www.w3.org/2000/svg"
   xmlns="http://www.w3.org/2000/svg"
   xmlns:sodipodi="http://sodipodi.sourceforge.net/DTD/sodipodi-0.dtd"
   xmlns:inkscape="http://www.inkscape.org/namespaces/inkscape"
   sodipodi:docname="modicon-at.svg"
   inkscape:version="1.0 (4035a4fb49, 2020-05-01)"
   width="128.0px"
   height="128.0px"
   viewBox="0 0 128.0 128.0"
   version="1.1"
   id="SVGRoot"
   inkscape:export-filename="selection-mod-autoplay@2x.png"
   inkscape:export-xdpi="96"
   inkscape:export-ydpi="96">
  <defs
     id="defs833" />
  <sodipodi:namedview
     inkscape:window-maximized="0"
     inkscape:window-y="7"
     inkscape:window-x="7"
     inkscape:window-height="974"
     inkscape:window-width="1068"
     showgrid="true"
     inkscape:document-rotation="0"
     inkscape:current-layer="layer2"
     inkscape:document-units="px"
     inkscape:cy="64"
     inkscape:cx="64"
     inkscape:zoom="1"
     inkscape:pageshadow="2"
     inkscape:pageopacity="0"
     borderopacity="1.0"
     bordercolor="#666666"
     pagecolor="#000815"
     id="base">
    <inkscape:grid
       spacingy="2"
       empspacing="8"
       spacingx="2"
       id="grid1410"
       type="xygrid" />
  </sodipodi:namedview>
  <metadata
     id="metadata836">
    <rdf:RDF>
      <cc:Work
         rdf:about="">
        <dc:format>image/svg+xml</dc:format>
        <dc:type
           rdf:resource="http://purl.org/dc/dcmitype/StillImage" />
        <dc:title></dc:title>
      </cc:Work>
    </rdf:RDF>
  </metadata>
  <g
     id="layer1"
     inkscape:groupmode="layer"
     inkscape:label="Background">
    <path
       id="path1412"
       d="M 64,4 4,64 64,124 124,64 Z M 64,12 116,64 64,116 12,64 Z"
       style="fill:#ffffff;stroke:none;stroke-width:1px;stroke-linecap:butt;stroke-linejoin:miter;stroke-opacity:1;fill-opacity:1" />
    <path
       style="fill:#000000;stroke:none;stroke-width:1px;stroke-linecap:butt;stroke-linejoin:miter;stroke-opacity:1;fill-opacity:1"
       d="M 64,12 116,64 64,116 12,64 Z"
       id="path2059" />
  </g>
  <g
     inkscape:groupmode="layer"
     id="layer3"
     inkscape:label="Text">
    <text
       id="text1416"
       y="120"
       x="124"
       style="font-style:normal;font-variant:normal;font-weight:900;font-stretch:normal;font-size:20px;line-height:1.25;font-family:Orbitron;-inkscape-font-specification:'Orbitron Heavy';text-align:end;text-anchor:end;fill:#66ccff;fill-opacity:1;stroke:none"
       xml:space="preserve"><tspan
         y="120"
         x="124"
         id="tspan1414"
         sodipodi:role="line">AT</tspan></text>
  </g>
  <g
     inkscape:groupmode="layer"
     id="layer2"
     inkscape:label="Content">
    <path
       id="path3800"
       d="M 72.282209,94.909626 70.211657,87.18222 a 24,24 0 0 1 -12.423314,0 l -2.070552,7.727406 A 32,32 0 0 1 41.372583,86.627417 l 5.656854,-5.656854 A 24,24 0 0 1 40.81778,70.211657 l -7.727406,2.070552 a 32,32 0 0 1 0,-16.564418 l 7.727406,2.070552 a 24,24 0 0 1 6.211657,-10.758906 l -5.656854,-5.656854 a 32,32 0 0 1 14.345208,-8.282209 l 2.070552,7.727406 a 24,24 0 0 1 12.423314,0 l 2.070552,-7.727406 a 32,32 0 0 1 14.345208,8.282209 l -5.656854,5.656854 a 24,24 0 0 1 6.211657,10.758906 l 7.727406,-2.070552 a 32,32 0 0 1 0,16.564418 L 87.18222,70.211657 a 24,24 0 0 1 -6.211657,10.758906 l 5.656854,5.656854 A 32,32 0 0 1 72.282209,94.909626 Z M 64,48 A 16,16 0 0 0 48,64 16,16 0 0 0 64,80 16,16 0 0 0 80,64 16,16 0 0 0 64,48 Z"
       style="fill:#66ccff;fill-opacity:1;stroke:none;stroke-width:1px;stroke-linecap:butt;stroke-linejoin:miter;stroke-opacity:1" />
  </g>
</svg>
