<?xml version="1.0" encoding="UTF-8" standalone="no"?>
<svg
   xmlns:dc="http://purl.org/dc/elements/1.1/"
   xmlns:cc="http://creativecommons.org/ns#"
   xmlns:rdf="http://www.w3.org/1999/02/22-rdf-syntax-ns#"
   xmlns:svg="http://www.w3.org/2000/svg"
   xmlns="http://www.w3.org/2000/svg"
   xmlns:sodipodi="http://sodipodi.sourceforge.net/DTD/sodipodi-0.dtd"
   xmlns:inkscape="http://www.inkscape.org/namespaces/inkscape"
   sodipodi:docname="modicon-nf.svg"
   inkscape:version="1.0 (4035a4fb49, 2020-05-01)"
   width="128.0px"
   height="128.0px"
   viewBox="0 0 128.0 128.0"
   version="1.1"
   id="SVGRoot"
   inkscape:export-filename="selection-mod-nofail@2x.png"
   inkscape:export-xdpi="96"
   inkscape:export-ydpi="96">
  <defs
     id="defs833" />
  <sodipodi:namedview
     inkscape:window-maximized="0"
     inkscape:window-y="95"
     inkscape:window-x="74"
     inkscape:window-height="871"
     inkscape:window-width="1274"
     showgrid="true"
     inkscape:document-rotation="0"
     inkscape:current-layer="layer2"
     inkscape:document-units="px"
     inkscape:cy="64"
     inkscape:cx="64.003437"
     inkscape:zoom="5.675"
     inkscape:pageshadow="2"
     inkscape:pageopacity="0"
     borderopacity="1.0"
     bordercolor="#666666"
     pagecolor="#000815"
     id="base">
    <inkscape:grid
       spacingy="2"
       empspacing="8"
       spacingx="2"
       id="grid1410"
       type="xygrid" />
  </sodipodi:namedview>
  <metadata
     id="metadata836">
    <rdf:RDF>
      <cc:Work
         rdf:about="">
        <dc:format>image/svg+xml</dc:format>
        <dc:type
           rdf:resource="http://purl.org/dc/dcmitype/StillImage" />
        <dc:title></dc:title>
      </cc:Work>
    </rdf:RDF>
  </metadata>
  <g
     id="layer1"
     inkscape:groupmode="layer"
     inkscape:label="Background">
    <path
       id="path1412"
       d="M 64,4 4,64 64,124 124,64 Z M 64,12 116,64 64,116 12,64 Z"
       style="fill:#ffffff;stroke:none;stroke-width:1px;stroke-linecap:butt;stroke-linejoin:miter;stroke-opacity:1;fill-opacity:1" />
    <path
       style="fill:#000000;stroke:none;stroke-width:1px;stroke-linecap:butt;stroke-linejoin:miter;stroke-opacity:1;fill-opacity:1"
       d="M 64,12 116,64 64,116 12,64 Z"
       id="path2059" />
  </g>
  <g
     inkscape:groupmode="layer"
     id="layer3"
     inkscape:label="Text">
    <text
       id="text1416"
       y="120"
       x="124"
       style="font-style:normal;font-variant:normal;font-weight:900;font-stretch:normal;font-size:20px;line-height:1.25;font-family:Orbitron;-inkscape-font-specification:'Orbitron Heavy';text-align:end;text-anchor:end;fill:#88b300;fill-opacity:1;stroke:none"
       xml:space="preserve"><tspan
         id="tspan3783"
         y="120"
         x="124"
         sodipodi:role="line">NF</tspan></text>
  </g>
  <g
     inkscape:groupmode="layer"
     id="layer2"
     inkscape:label="Content">
    <path
       d="M 64 32 A 32 32 0 0 0 32 64 A 32 32 0 0 0 64 96 A 32 32 0 0 0 96 64 A 32 32 0 0 0 64 32 z M 64.128906 36 A 28 28 0 0 1 74.714844 38.130859 L 71.654297 45.521484 A 20 20 0 0 0 56.345703 45.521484 L 53.285156 38.130859 A 28 28 0 0 1 64.128906 36 z M 64 48 A 16 16 0 0 1 80 64 A 16 16 0 0 1 64 80 A 16 16 0 0 1 48 64 A 16 16 0 0 1 64 48 z M 38.130859 53.285156 L 45.521484 56.345703 A 20 20 0 0 0 45.521484 71.654297 L 38.130859 74.714844 A 28 28 0 0 1 38.130859 53.285156 z M 89.869141 53.285156 A 28 28 0 0 1 89.869141 74.714844 L 82.478516 71.654297 A 20 20 0 0 0 82.478516 56.345703 L 89.869141 53.285156 z M 56.345703 82.478516 A 20 20 0 0 0 71.654297 82.478516 L 74.714844 89.869141 A 28 28 0 0 1 53.285156 89.869141 L 56.345703 82.478516 z "
       style="fill:#88b300;fill-opacity:1;stroke-width:4"
       id="path3787" />
  </g>
</svg>
