<?xml version="1.0" encoding="UTF-8" standalone="no"?>
<svg
   xmlns:dc="http://purl.org/dc/elements/1.1/"
   xmlns:cc="http://creativecommons.org/ns#"
   xmlns:rdf="http://www.w3.org/1999/02/22-rdf-syntax-ns#"
   xmlns:svg="http://www.w3.org/2000/svg"
   xmlns="http://www.w3.org/2000/svg"
   xmlns:sodipodi="http://sodipodi.sourceforge.net/DTD/sodipodi-0.dtd"
   xmlns:inkscape="http://www.inkscape.org/namespaces/inkscape"
   inkscape:export-ydpi="96"
   inkscape:export-xdpi="96"
   inkscape:export-filename="selection-mod-flashlight@2x.png"
   id="SVGRoot"
   version="1.1"
   viewBox="0 0 128.0 128.0"
   height="128.0px"
   width="128.0px"
   inkscape:version="1.0 (4035a4fb49, 2020-05-01)"
   sodipodi:docname="modicon-fl.svg">
  <defs
     id="defs833" />
  <sodipodi:namedview
     id="base"
     pagecolor="#000815"
     bordercolor="#666666"
     borderopacity="1.0"
     inkscape:pageopacity="0"
     inkscape:pageshadow="2"
     inkscape:zoom="5.390625"
     inkscape:cx="67.7302"
     inkscape:cy="64"
     inkscape:document-units="px"
     inkscape:current-layer="layer3"
     inkscape:document-rotation="0"
     showgrid="true"
     inkscape:window-width="1274"
     inkscape:window-height="975"
     inkscape:window-x="243"
     inkscape:window-y="20"
     inkscape:window-maximized="0">
    <inkscape:grid
       type="xygrid"
       id="grid1410"
       spacingx="2"
       empspacing="8"
       spacingy="2" />
  </sodipodi:namedview>
  <metadata
     id="metadata836">
    <rdf:RDF>
      <cc:Work
         rdf:about="">
        <dc:format>image/svg+xml</dc:format>
        <dc:type
           rdf:resource="http://purl.org/dc/dcmitype/StillImage" />
        <dc:title></dc:title>
      </cc:Work>
    </rdf:RDF>
  </metadata>
  <g
     inkscape:label="Background"
     inkscape:groupmode="layer"
     id="layer1">
    <path
       style="fill:#ffffff;stroke:none;stroke-width:1px;stroke-linecap:butt;stroke-linejoin:miter;stroke-opacity:1;fill-opacity:1"
       d="M 64,4 4,64 64,124 124,64 Z M 64,12 116,64 64,116 12,64 Z"
       id="path1412" />
    <path
       id="path2059"
       d="M 64,12 116,64 64,116 12,64 Z"
       style="fill:#000000;stroke:none;stroke-width:1px;stroke-linecap:butt;stroke-linejoin:miter;stroke-opacity:1;fill-opacity:1" />
  </g>
  <g
     inkscape:label="Text"
     id="layer3"
     inkscape:groupmode="layer">
    <text
       xml:space="preserve"
       style="font-style:normal;font-variant:normal;font-weight:900;font-stretch:normal;font-size:20px;line-height:1.25;font-family:Orbitron;-inkscape-font-specification:'Orbitron Heavy';text-align:end;text-anchor:end;fill:#ffcc22;fill-opacity:1;stroke:none"
       x="124"
       y="120"
       id="text1416"><tspan
         sodipodi:role="line"
         id="tspan1414"
         x="124"
         y="120">FL</tspan></text>
  </g>
  <g
     inkscape:label="Content"
     id="layer2"
     inkscape:groupmode="layer">
    <path
       d="M 96,64 A 32,32 0 0 1 64,96 32,32 0 0 1 32,64 32,32 0 0 1 64,32 32,32 0 0 1 96,64 Z M 56,64 A 8,8 0 0 0 64,72 A 8,8 0 0 0 72,64 A 8,8 0 0 0 64,56 A 8,8 0 0 0 56,64 Z"
       style="fill:#ffcc22;fill-opacity:1;stroke:none;stroke-width:4"
       id="path2643" />
  </g>
</svg>
