<?xml version="1.0" encoding="UTF-8" standalone="no"?>
<svg
   xmlns:dc="http://purl.org/dc/elements/1.1/"
   xmlns:cc="http://creativecommons.org/ns#"
   xmlns:rdf="http://www.w3.org/1999/02/22-rdf-syntax-ns#"
   xmlns:svg="http://www.w3.org/2000/svg"
   xmlns="http://www.w3.org/2000/svg"
   xmlns:sodipodi="http://sodipodi.sourceforge.net/DTD/sodipodi-0.dtd"
   xmlns:inkscape="http://www.inkscape.org/namespaces/inkscape"
   inkscape:export-ydpi="96"
   inkscape:export-xdpi="96"
   inkscape:export-filename="ranking-XH@2x.png"
   sodipodi:docname="ranking-sshidden.svg"
   inkscape:version="1.0 (4035a4fb49, 2020-05-01)"
   width="768"
   height="768"
   viewBox="0 0 384 384"
   version="1.1"
   id="SVGRoot">
  <defs
     id="defs833">
    <filter
       height="1.4"
       width="1.4"
       y="-0.2"
       x="-0.2"
       id="filter1642"
       inkscape:label="Drop Shadow"
       style="color-interpolation-filters:sRGB">
      <feFlood
         id="feFlood1632"
         result="flood"
         flood-color="rgb(0,0,0)"
         flood-opacity="0.498039" />
      <feComposite
         id="feComposite1634"
         result="composite1"
         operator="in"
         in2="SourceGraphic"
         in="flood" />
      <feGaussianBlur
         id="feGaussianBlur1636"
         result="blur"
         stdDeviation="3"
         in="composite1" />
      <feOffset
         id="feOffset1638"
         result="offset"
         dy="6"
         dx="3" />
      <feComposite
         id="feComposite1640"
         result="composite2"
         operator="over"
         in2="offset"
         in="SourceGraphic" />
    </filter>
  </defs>
  <sodipodi:namedview
     inkscape:pagecheckerboard="true"
     inkscape:snap-text-baseline="true"
     inkscape:window-maximized="0"
     inkscape:window-y="39"
     inkscape:window-x="437"
     inkscape:window-height="952"
     inkscape:window-width="1274"
     showgrid="true"
     inkscape:document-rotation="0"
     inkscape:current-layer="layer1"
     inkscape:document-units="px"
     inkscape:cy="200"
     inkscape:cx="187.50473"
     inkscape:zoom="1"
     inkscape:pageshadow="2"
     inkscape:pageopacity="0"
     borderopacity="1.0"
     bordercolor="#666666"
     pagecolor="#7f7f7f"
     id="base">
    <inkscape:grid
       empspacing="16"
       spacingy="2"
       spacingx="2"
       type="xygrid"
       id="grid1403" />
  </sodipodi:namedview>
  <metadata
     id="metadata836">
    <rdf:RDF>
      <cc:Work
         rdf:about="">
        <dc:format>image/svg+xml</dc:format>
        <dc:type
           rdf:resource="http://purl.org/dc/dcmitype/StillImage" />
        <dc:title></dc:title>
      </cc:Work>
    </rdf:RDF>
  </metadata>
  <g
     inkscape:label="bg"
     id="layer2"
     inkscape:groupmode="layer">
    <path
       id="path1657"
       d="M 192,32 32,192 192,352 352,192 Z"
       style="fill:#4d4d4d;stroke:#ffffff;stroke-width:16;stroke-linecap:butt;stroke-linejoin:miter;stroke-miterlimit:4;stroke-dasharray:none;stroke-opacity:1;paint-order:stroke fill markers" />
  </g>
  <g
     id="layer1"
     inkscape:groupmode="layer"
     inkscape:label="Layer 1">
    <g
       transform="translate(-6.378,2.816)"
       style="font-style:normal;font-variant:normal;font-weight:bold;font-stretch:normal;font-size:256px;line-height:1.25;font-family:Orbitron;-inkscape-font-specification:'Orbitron Bold';text-align:center;text-anchor:middle;fill:#ffffff;fill-opacity:1;stroke:none;stroke-width:16;stroke-miterlimit:4;stroke-dasharray:none;stroke-opacity:1;paint-order:stroke fill markers;filter:url(#filter1642)"
       id="text1412-9"
       aria-label="S">
      <path
         id="path1435"
         d="M 103.402,256 Q 88.81,256 78.314,245.504 67.818,235.008 67.818,220.416 v -14.08 h 33.792 v 6.656 q 0,7.168 0.768,8.192 1.024,0.768 8.192,0.768 h 98.56 q 7.168,0 7.936,-0.768 1.024,-1.024 1.024,-8.192 v -23.296 q 0,-7.168 -1.024,-7.936 -0.768,-0.768 -7.936,-0.768 H 103.402 q -14.592,0 -25.088,-10.496 -10.496,-10.752 -10.496,-25.344 v -37.888 q 0,-14.592 10.496,-25.088 Q 88.81,71.68 103.402,71.68 h 113.152 q 14.592,0 25.088,10.496 10.496,10.496 10.496,25.088 v 14.08 H 218.09 v -6.656 q 0,-7.168 -1.024,-7.936 -0.768,-1.024 -7.936,-1.024 h -98.56 q -7.168,0 -8.192,1.024 -0.768,0.768 -0.768,7.936 v 23.296 q 0,7.168 0.768,7.936 1.024,0.768 8.192,0.768 h 105.984 q 14.592,0 25.088,10.752 10.496,10.496 10.496,25.088 v 37.888 q 0,14.592 -10.496,25.088 Q 231.146,256 216.554,256 Z" />
    </g>
    <g
       transform="translate(6.934,-10.752)"
       style="font-style:normal;font-variant:normal;font-weight:bold;font-stretch:normal;font-size:256px;line-height:1.25;font-family:Orbitron;-inkscape-font-specification:'Orbitron Bold';text-align:center;text-anchor:middle;fill:#808080;fill-opacity:1;stroke:#ffffff;stroke-width:16;stroke-miterlimit:4;stroke-dasharray:none;stroke-opacity:1;paint-order:stroke fill markers;filter:url(#filter1642)"
       id="text1412"
       aria-label="S">
      <path
         id="path1432"
         d="m 167.402,320 q -14.592,0 -25.088,-10.496 -10.496,-10.496 -10.496,-25.088 v -14.08 h 33.792 v 6.656 q 0,7.168 0.768,8.192 1.024,0.768 8.192,0.768 h 98.56 q 7.168,0 7.936,-0.768 1.024,-1.024 1.024,-8.192 v -23.296 q 0,-7.168 -1.024,-7.936 -0.768,-0.768 -7.936,-0.768 H 167.402 q -14.592,0 -25.088,-10.496 -10.496,-10.752 -10.496,-25.344 v -37.888 q 0,-14.592 10.496,-25.088 10.496,-10.496 25.088,-10.496 h 113.152 q 14.592,0 25.088,10.496 10.496,10.496 10.496,25.088 v 14.08 H 282.09 v -6.656 q 0,-7.168 -1.024,-7.936 -0.768,-1.024 -7.936,-1.024 h -98.56 q -7.168,0 -8.192,1.024 -0.768,0.768 -0.768,7.936 v 23.296 q 0,7.168 0.768,7.936 1.024,0.768 8.192,0.768 h 105.984 q 14.592,0 25.088,10.752 10.496,10.496 10.496,25.088 v 37.888 q 0,14.592 -10.496,25.088 Q 295.146,320 280.554,320 Z"
         style="fill:#808080" />
    </g>
  </g>
</svg>
