<?xml version="1.0" encoding="UTF-8" standalone="no"?>
<svg
   xmlns:dc="http://purl.org/dc/elements/1.1/"
   xmlns:cc="http://creativecommons.org/ns#"
   xmlns:rdf="http://www.w3.org/1999/02/22-rdf-syntax-ns#"
   xmlns:svg="http://www.w3.org/2000/svg"
   xmlns="http://www.w3.org/2000/svg"
   xmlns:sodipodi="http://sodipodi.sourceforge.net/DTD/sodipodi-0.dtd"
   xmlns:inkscape="http://www.inkscape.org/namespaces/inkscape"
   inkscape:export-ydpi="96"
   inkscape:export-xdpi="96"
   inkscape:export-filename="selection-options@2x.png"
   sodipodi:docname="select-options.svg"
   inkscape:version="1.0 (4035a4fb49, 2020-05-01)"
   width="154"
   height="180"
   viewBox="0 0 154 180"
   version="1.1"
   id="SVGRoot">
  <defs
     id="defs841" />
  <sodipodi:namedview
     inkscape:snap-text-baseline="true"
     inkscape:pagecheckerboard="true"
     inkscape:window-maximized="0"
     inkscape:window-y="30"
     inkscape:window-x="385"
     inkscape:window-height="951"
     inkscape:window-width="1274"
     showgrid="true"
     inkscape:document-rotation="0"
     inkscape:current-layer="layer1"
     inkscape:document-units="px"
     inkscape:cy="90"
     inkscape:cx="83.237289"
     inkscape:zoom="4.2277778"
     inkscape:pageshadow="2"
     inkscape:pageopacity="0"
     borderopacity="1.0"
     bordercolor="#666666"
     pagecolor="#000000"
     id="base">
    <inkscape:grid
       spacingy="2"
       empspacing="5"
       spacingx="2"
       type="xygrid"
       id="grid1411" />
  </sodipodi:namedview>
  <metadata
     id="metadata844">
    <rdf:RDF>
      <cc:Work
         rdf:about="">
        <dc:format>image/svg+xml</dc:format>
        <dc:type
           rdf:resource="http://purl.org/dc/dcmitype/StillImage" />
        <dc:title></dc:title>
      </cc:Work>
    </rdf:RDF>
  </metadata>
  <g
     id="layer1"
     inkscape:groupmode="layer"
     inkscape:label="Layer 1">
    <text
       id="text1454"
       y="170"
       x="150"
       style="font-style:normal;font-variant:normal;font-weight:500;font-stretch:normal;font-size:24px;line-height:1.25;font-family:Orbitron;-inkscape-font-specification:'Orbitron Medium';text-align:end;text-anchor:end;fill:#ffffff;fill-opacity:1;stroke:none"
       xml:space="preserve"><tspan
         y="170"
         x="150"
         id="tspan1452"
         sodipodi:role="line">F3</tspan></text>
    <path
       id="path1412"
       d="m 77,24 -60,60 60,60 60,-60 z m 0,8 52,52 -52,52 -52,-52 z"
       style="fill:#ffffff;fill-opacity:1;stroke:none;stroke-width:1px;stroke-linecap:butt;stroke-linejoin:miter;stroke-opacity:1" />
    <path
       id="path3800"
       d="m 85.28221,114.90963 -2.07055,-7.72741 a 24,24 0 0 1 -12.42332,0 l -2.07055,7.72741 a 32,32 0 0 1 -14.34521,-8.28221 l 5.65686,-5.65686 A 24,24 0 0 1 53.81778,90.211657 l -7.72741,2.070552 a 32,32 0 0 1 0,-16.564418 l 7.72741,2.070552 a 24,24 0 0 1 6.21166,-10.758906 l -5.65686,-5.656854 a 32,32 0 0 1 14.34521,-8.282209 l 2.07055,7.727406 a 24,24 0 0 1 12.42332,0 l 2.07055,-7.727406 a 32,32 0 0 1 14.34521,8.282209 l -5.65686,5.656854 a 24,24 0 0 1 6.21166,10.758906 l 7.72741,-2.070552 a 32,32 0 0 1 0,16.564418 l -7.72741,-2.070552 a 24,24 0 0 1 -6.21166,10.758903 l 5.65686,5.65686 a 32,32 0 0 1 -14.34521,8.28221 z M 77,68 A 16,16 0 0 0 61,84 16,16 0 0 0 77,100 16,16 0 0 0 93,84 16,16 0 0 0 77,68 Z"
       style="fill:#ffffff;fill-opacity:1;stroke:none;stroke-width:1px;stroke-linecap:butt;stroke-linejoin:miter;stroke-opacity:1" />
  </g>
</svg>
