<?xml version="1.0" encoding="UTF-8" standalone="no"?>
<svg
   xmlns:dc="http://purl.org/dc/elements/1.1/"
   xmlns:cc="http://creativecommons.org/ns#"
   xmlns:rdf="http://www.w3.org/1999/02/22-rdf-syntax-ns#"
   xmlns:svg="http://www.w3.org/2000/svg"
   xmlns="http://www.w3.org/2000/svg"
   xmlns:xlink="http://www.w3.org/1999/xlink"
   xmlns:sodipodi="http://sodipodi.sourceforge.net/DTD/sodipodi-0.dtd"
   xmlns:inkscape="http://www.inkscape.org/namespaces/inkscape"
   id="SVGRoot"
   version="1.1"
   viewBox="0 0 154 180"
   height="180"
   width="154"
   inkscape:version="1.0 (4035a4fb49, 2020-05-01)"
   sodipodi:docname="select-options-over.svg"
   inkscape:export-filename="selection-options-over@2x.png"
   inkscape:export-xdpi="96"
   inkscape:export-ydpi="96">
  <defs
     id="defs841">
    <linearGradient
       inkscape:collect="always"
       id="linearGradient1440">
      <stop
         style="stop-color:#ff00ff;stop-opacity:0.50196081"
         offset="0"
         id="stop1436" />
      <stop
         style="stop-color:#ff00ff;stop-opacity:0"
         offset="1"
         id="stop1438" />
    </linearGradient>
    <linearGradient
       gradientTransform="translate(0,-180)"
       inkscape:collect="always"
       xlink:href="#linearGradient1440"
       id="linearGradient1442"
       x1="90"
       y1="180"
       x2="90"
       y2="0"
       gradientUnits="userSpaceOnUse" />
  </defs>
  <sodipodi:namedview
     id="base"
     pagecolor="#000000"
     bordercolor="#666666"
     borderopacity="1.0"
     inkscape:pageopacity="0"
     inkscape:pageshadow="2"
     inkscape:zoom="4.2277778"
     inkscape:cx="83.237289"
     inkscape:cy="90"
     inkscape:document-units="px"
     inkscape:current-layer="layer1"
     inkscape:document-rotation="0"
     showgrid="true"
     inkscape:window-width="1274"
     inkscape:window-height="951"
     inkscape:window-x="385"
     inkscape:window-y="30"
     inkscape:window-maximized="0"
     inkscape:pagecheckerboard="true"
     inkscape:snap-text-baseline="true">
    <inkscape:grid
       id="grid1411"
       type="xygrid"
       spacingx="2"
       empspacing="5"
       spacingy="2" />
  </sodipodi:namedview>
  <metadata
     id="metadata844">
    <rdf:RDF>
      <cc:Work
         rdf:about="">
        <dc:format>image/svg+xml</dc:format>
        <dc:type
           rdf:resource="http://purl.org/dc/dcmitype/StillImage" />
        <dc:title />
      </cc:Work>
    </rdf:RDF>
  </metadata>
  <g
     inkscape:label="Layer 1"
     inkscape:groupmode="layer"
     id="layer1">
    <rect
       transform="scale(1,-1)"
       style="fill:url(#linearGradient1442);fill-opacity:1;stroke:none;stroke-width:4"
       id="rect1432"
       width="154"
       height="180"
       x="0"
       y="-180" />
    <text
       xml:space="preserve"
       style="font-style:normal;font-variant:normal;font-weight:500;font-stretch:normal;font-size:24px;line-height:1.25;font-family:Orbitron;-inkscape-font-specification:'Orbitron Medium';text-align:end;text-anchor:end;fill:#ffffff;fill-opacity:1;stroke:none"
       x="150"
       y="170"
       id="text1454"><tspan
         sodipodi:role="line"
         id="tspan1452"
         x="150"
         y="170">F3</tspan></text>
    <path
       style="fill:#ffffff;fill-opacity:1;stroke:none;stroke-width:1px;stroke-linecap:butt;stroke-linejoin:miter;stroke-opacity:1"
       d="m 77,24 -60,60 60,60 60,-60 z m 0,8 52,52 -52,52 -52,-52 z"
       id="path1412" />
    <path
       style="fill:#ffffff;fill-opacity:1;stroke:none;stroke-width:1px;stroke-linecap:butt;stroke-linejoin:miter;stroke-opacity:1"
       d="m 85.28221,114.90963 -2.07055,-7.72741 a 24,24 0 0 1 -12.42332,0 l -2.07055,7.72741 a 32,32 0 0 1 -14.34521,-8.28221 l 5.65686,-5.65686 A 24,24 0 0 1 53.81778,90.211657 l -7.72741,2.070552 a 32,32 0 0 1 0,-16.564418 l 7.72741,2.070552 a 24,24 0 0 1 6.21166,-10.758906 l -5.65686,-5.656854 a 32,32 0 0 1 14.34521,-8.282209 l 2.07055,7.727406 a 24,24 0 0 1 12.42332,0 l 2.07055,-7.727406 a 32,32 0 0 1 14.34521,8.282209 l -5.65686,5.656854 a 24,24 0 0 1 6.21166,10.758906 l 7.72741,-2.070552 a 32,32 0 0 1 0,16.564418 l -7.72741,-2.070552 a 24,24 0 0 1 -6.21166,10.758903 l 5.65686,5.65686 a 32,32 0 0 1 -14.34521,8.28221 z M 77,68 A 16,16 0 0 0 61,84 16,16 0 0 0 77,100 16,16 0 0 0 93,84 16,16 0 0 0 77,68 Z"
       id="path3800" />
  </g>
</svg>
