<?xml version="1.0" encoding="UTF-8" standalone="no"?>
<svg
   xmlns:dc="http://purl.org/dc/elements/1.1/"
   xmlns:cc="http://creativecommons.org/ns#"
   xmlns:rdf="http://www.w3.org/1999/02/22-rdf-syntax-ns#"
   xmlns:svg="http://www.w3.org/2000/svg"
   xmlns="http://www.w3.org/2000/svg"
   xmlns:sodipodi="http://sodipodi.sourceforge.net/DTD/sodipodi-0.dtd"
   xmlns:inkscape="http://www.inkscape.org/namespaces/inkscape"
   id="SVGRoot"
   version="1.1"
   viewBox="0 0 256 256"
   height="256"
   width="256"
   inkscape:version="1.0 (4035a4fb49, 2020-05-01)"
   sodipodi:docname="sliderb.svg"
   inkscape:export-filename="sliderb@2x.png"
   inkscape:export-xdpi="96"
   inkscape:export-ydpi="96">
  <defs
     id="defs833" />
  <sodipodi:namedview
     id="base"
     pagecolor="#000000"
     bordercolor="#666666"
     borderopacity="1.0"
     inkscape:pageopacity="0"
     inkscape:pageshadow="2"
     inkscape:zoom="2.6953125"
     inkscape:cx="128"
     inkscape:cy="128"
     inkscape:document-units="px"
     inkscape:current-layer="layer3"
     inkscape:document-rotation="0"
     showgrid="true"
     inkscape:window-width="1274"
     inkscape:window-height="929"
     inkscape:window-x="202"
     inkscape:window-y="54"
     inkscape:window-maximized="0"
     inkscape:snap-object-midpoints="true">
    <inkscape:grid
       id="grid1403"
       type="xygrid"
       originx="128"
       originy="128" />
  </sodipodi:namedview>
  <metadata
     id="metadata836">
    <rdf:RDF>
      <cc:Work
         rdf:about="">
        <dc:format>image/svg+xml</dc:format>
        <dc:type
           rdf:resource="http://purl.org/dc/dcmitype/StillImage" />
        <dc:title></dc:title>
      </cc:Work>
    </rdf:RDF>
  </metadata>
  <g
     inkscape:label="bg"
     id="layer3"
     inkscape:groupmode="layer">
    <circle
       style="fill:#ffffff;fill-opacity:0.50196081;stroke:none;stroke-width:15.6279;paint-order:stroke fill markers"
       id="path833-6"
       cx="128"
       cy="128"
       r="106" />
  </g>
  <g
     inkscape:label="Layer 1"
     inkscape:groupmode="layer"
     id="layer1">
    <path
       d="M 127.7207 22 A 106 106 0 0 0 22 128 A 106 106 0 0 0 128 234 A 106 106 0 0 0 234 128 A 106 106 0 0 0 128 22 A 106 106 0 0 0 127.7207 22 z M 127.82812 38 A 90 90 0 0 1 128 38 A 90 90 0 0 1 218 128 A 90 90 0 0 1 128 218 A 90 90 0 0 1 38 128 A 90 90 0 0 1 127.82812 38 z "
       style="fill:#ffffff;fill-opacity:1;stroke:none;stroke-width:15.6279;paint-order:stroke fill markers"
       id="path833" />
  </g>
  <g
     inkscape:groupmode="layer"
     id="layer2"
     inkscape:label="ring" />
</svg>
