<?xml version="1.0" encoding="UTF-8" standalone="no"?>
<svg
   xmlns:dc="http://purl.org/dc/elements/1.1/"
   xmlns:cc="http://creativecommons.org/ns#"
   xmlns:rdf="http://www.w3.org/1999/02/22-rdf-syntax-ns#"
   xmlns:svg="http://www.w3.org/2000/svg"
   xmlns="http://www.w3.org/2000/svg"
   xmlns:sodipodi="http://sodipodi.sourceforge.net/DTD/sodipodi-0.dtd"
   xmlns:inkscape="http://www.inkscape.org/namespaces/inkscape"
   id="SVGRoot"
   version="1.1"
   viewBox="0 0 68 80"
   height="80"
   width="68"
   inkscape:version="1.0 (4035a4fb49, 2020-05-01)"
   sodipodi:docname="small-sshidden.svg"
   inkscape:export-filename="ranking-XH-small@2x.png"
   inkscape:export-xdpi="96"
   inkscape:export-ydpi="96">
  <defs
     id="defs833" />
  <sodipodi:namedview
     id="base"
     pagecolor="#000000"
     bordercolor="#666666"
     borderopacity="1.0"
     inkscape:pageopacity="0"
     inkscape:pageshadow="2"
     inkscape:zoom="10.3375"
     inkscape:cx="34"
     inkscape:cy="40"
     inkscape:document-units="px"
     inkscape:current-layer="layer1"
     inkscape:document-rotation="0"
     showgrid="true"
     inkscape:window-width="1920"
     inkscape:window-height="1017"
     inkscape:window-x="-8"
     inkscape:window-y="-8"
     inkscape:window-maximized="1"
     inkscape:pagecheckerboard="true"
     inkscape:snap-object-midpoints="true">
    <inkscape:grid
       id="grid1403"
       type="xygrid"
       spacingx="2"
       spacingy="2"
       originx="34"
       originy="40" />
  </sodipodi:namedview>
  <metadata
     id="metadata836">
    <rdf:RDF>
      <cc:Work
         rdf:about="">
        <dc:format>image/svg+xml</dc:format>
        <dc:type
           rdf:resource="http://purl.org/dc/dcmitype/StillImage" />
        <dc:title />
      </cc:Work>
    </rdf:RDF>
  </metadata>
  <g
     inkscape:label="Layer 1"
     inkscape:groupmode="layer"
     id="layer1">
    <g
       aria-label="S"
       id="text1991"
       style="font-style:normal;font-variant:normal;font-weight:600;font-stretch:normal;font-size:60px;line-height:1.25;font-family:Orbitron;-inkscape-font-specification:'Orbitron Semi-Bold';fill:none;fill-opacity:1;stroke:#ffffff;stroke-width:2;stroke-miterlimit:4;stroke-dasharray:none;stroke-opacity:1"
       transform="translate(0.89351885,0.623579)">
      <path
         d="m 17.546481,58.476421 q -3.3,0 -5.7,-2.34 -2.3399997,-2.4 -2.3399997,-5.76 v -2.88 h 7.1999997 v 1.62 q 0,1.5 0.3,1.8 0.3,0.3 1.8,0.3 h 24.48 q 1.5,0 1.8,-0.3 0.36,-0.3 0.36,-1.8 v -6.48 q 0,-1.5 -0.36,-1.8 -0.3,-0.3 -1.8,-0.3 h -25.74 q -3.3,0 -5.7,-2.4 -2.3399997,-2.4 -2.3399997,-5.7 v -9.06 q 0,-3.36 2.3399997,-5.7 2.4,-2.4 5.7,-2.4 h 27.06 q 3.3,0 5.7,2.4 2.4,2.34 2.4,5.7 v 2.88 h -7.26 v -1.62 q 0,-1.5 -0.36,-1.8 -0.3,-0.3 -1.8,-0.3 h -24.48 q -1.5,0 -1.8,0.3 -0.3,0.3 -0.3,1.8 v 6.48 q 0,1.5 0.3,1.8 0.3,0.3 1.8,0.3 h 25.8 q 3.3,0 5.7,2.4 2.4,2.4 2.4,5.7 v 9.06 q 0,3.36 -2.4,5.76 -2.4,2.34 -5.7,2.34 z"
         id="path1996"
         style="fill:none;stroke:#ffffff;stroke-width:2;stroke-miterlimit:4;stroke-dasharray:none;stroke-opacity:1" />
    </g>
    <g
       transform="translate(4.8935188,5.523579)"
       style="font-style:normal;font-variant:normal;font-weight:600;font-stretch:normal;font-size:60px;line-height:1.25;font-family:Orbitron;-inkscape-font-specification:'Orbitron Semi-Bold';fill:#ffffff;fill-opacity:1;stroke:none"
       id="text1991-1"
       aria-label="S">
      <path
         id="path1996-9"
         d="m 17.546481,58.476421 q -3.3,0 -5.7,-2.34 -2.3399997,-2.4 -2.3399997,-5.76 v -2.88 h 7.1999997 v 1.62 q 0,1.5 0.3,1.8 0.3,0.3 1.8,0.3 h 24.48 q 1.5,0 1.8,-0.3 0.36,-0.3 0.36,-1.8 v -6.48 q 0,-1.5 -0.36,-1.8 -0.3,-0.3 -1.8,-0.3 h -25.74 q -3.3,0 -5.7,-2.4 -2.3399997,-2.4 -2.3399997,-5.7 v -9.06 q 0,-3.36 2.3399997,-5.7 2.4,-2.4 5.7,-2.4 h 27.06 q 3.3,0 5.7,2.4 2.4,2.34 2.4,5.7 v 2.88 h -7.26 v -1.62 q 0,-1.5 -0.36,-1.8 -0.3,-0.3 -1.8,-0.3 h -24.48 q -1.5,0 -1.8,0.3 -0.3,0.3 -0.3,1.8 v 6.48 q 0,1.5 0.3,1.8 0.3,0.3 1.8,0.3 h 25.8 q 3.3,0 5.7,2.4 2.4,2.4 2.4,5.7 v 9.06 q 0,3.36 -2.4,5.76 -2.4,2.34 -5.7,2.34 z"
         style="fill:#ffffff;fill-opacity:1" />
    </g>
  </g>
</svg>
