<?xml version="1.0" encoding="UTF-8" standalone="no"?>
<svg
   xmlns:dc="http://purl.org/dc/elements/1.1/"
   xmlns:cc="http://creativecommons.org/ns#"
   xmlns:rdf="http://www.w3.org/1999/02/22-rdf-syntax-ns#"
   xmlns:svg="http://www.w3.org/2000/svg"
   xmlns="http://www.w3.org/2000/svg"
   xmlns:sodipodi="http://sodipodi.sourceforge.net/DTD/sodipodi-0.dtd"
   xmlns:inkscape="http://www.inkscape.org/namespaces/inkscape"
   inkscape:export-ydpi="96"
   inkscape:export-xdpi="96"
   inkscape:export-filename="ranking-B-small@2x.png"
   sodipodi:docname="small-b.svg"
   inkscape:version="1.0 (4035a4fb49, 2020-05-01)"
   width="68"
   height="80"
   viewBox="0 0 68 80"
   version="1.1"
   id="SVGRoot">
  <defs
     id="defs833" />
  <sodipodi:namedview
     inkscape:snap-object-midpoints="true"
     inkscape:pagecheckerboard="true"
     inkscape:window-maximized="1"
     inkscape:window-y="-8"
     inkscape:window-x="-8"
     inkscape:window-height="1017"
     inkscape:window-width="1920"
     showgrid="true"
     inkscape:document-rotation="0"
     inkscape:current-layer="layer1"
     inkscape:document-units="px"
     inkscape:cy="40"
     inkscape:cx="34"
     inkscape:zoom="10.3375"
     inkscape:pageshadow="2"
     inkscape:pageopacity="0"
     borderopacity="1.0"
     bordercolor="#666666"
     pagecolor="#000000"
     id="base">
    <inkscape:grid
       originy="40"
       originx="34"
       spacingy="2"
       spacingx="2"
       type="xygrid"
       id="grid1403" />
  </sodipodi:namedview>
  <metadata
     id="metadata836">
    <rdf:RDF>
      <cc:Work
         rdf:about="">
        <dc:format>image/svg+xml</dc:format>
        <dc:type
           rdf:resource="http://purl.org/dc/dcmitype/StillImage" />
        <dc:title></dc:title>
      </cc:Work>
    </rdf:RDF>
  </metadata>
  <g
     id="layer1"
     inkscape:groupmode="layer"
     inkscape:label="Layer 1">
    <g
       transform="translate(-1.597074,0.15381)"
       style="font-style:normal;font-variant:normal;font-weight:600;font-stretch:normal;font-size:60px;line-height:1.25;font-family:Orbitron;-inkscape-font-specification:'Orbitron Semi-Bold';fill:#ffcc21;fill-opacity:1"
       id="text3735"
       aria-label="B">
      <path
         id="path3737"
         d="m 13.997074,61.44619 v -43.2 h 33.36 q 3.3,0 5.7,2.4 2.4,2.34 2.4,5.7 v 8.58 q 0,0.84 -0.18,1.62 -0.12,0.72 -0.42,1.38 1.08,1.5 1.68,3 0.66,1.44 0.66,2.94 v 9.48 q 0,3.36 -2.4,5.76 -2.34,2.34 -5.7,2.34 z m 9.36,-7.26 h 24.42 q 1.5,0 1.8,-0.3 0.36,-0.3 0.36,-1.8 v -6.9 q 0,-1.5 -0.36,-1.8 -0.3,-0.3 -1.8,-0.3 h -24.42 q -1.5,0 -1.86,0.3 -0.3,0.3 -0.3,1.8 v 6.9 q 0,1.5 0.3,1.8 0.36,0.3 1.86,0.3 z m 0,-18.36 h 22.68 q 1.5,0 1.8,-0.3 0.3,-0.36 0.3,-1.86 v -6.06 q 0,-1.5 -0.3,-1.8 -0.3,-0.3 -1.8,-0.3 h -22.68 q -1.5,0 -1.86,0.3 -0.3,0.3 -0.3,1.8 v 6.06 q 0,1.5 0.3,1.86 0.36,0.3 1.86,0.3 z" />
    </g>
  </g>
</svg>
